<mxfile host="app.diagrams.net" modified="2023-09-29T21:39:29.126Z" agent="Mozilla/5.0 (Windows NT 10.0; Win64; x64) AppleWebKit/537.36 (KHTML, like Gecko) Chrome/117.0.0.0 Safari/537.36 Edg/117.0.2045.43" etag="Uub4TWhvoMbds3z7fFMb" version="22.0.0" type="device">
  <diagram id="0yWIA0VArQbbQcTX71ZR" name="USUARIOS">
    <mxGraphModel dx="832" dy="481" grid="1" gridSize="10" guides="1" tooltips="1" connect="1" arrows="1" fold="1" page="1" pageScale="1" pageWidth="850" pageHeight="1100" math="0" shadow="0">
      <root>
        <mxCell id="0" />
        <mxCell id="1" parent="0" />
        <mxCell id="MdGnMoaIirAIcK-owrv5-3" value="CLIENTE" style="shape=umlActor;verticalLabelPosition=bottom;verticalAlign=top;html=1;" vertex="1" parent="1">
          <mxGeometry x="470" y="80" width="30" height="60" as="geometry" />
        </mxCell>
        <mxCell id="MdGnMoaIirAIcK-owrv5-6" value="PERFIL" style="shape=umlFrame;whiteSpace=wrap;html=1;pointerEvents=0;fillColor=#d5e8d4;strokeColor=#82b366;" vertex="1" parent="1">
          <mxGeometry x="200" y="40" width="480" height="160" as="geometry" />
        </mxCell>
        <mxCell id="MdGnMoaIirAIcK-owrv5-7" value="DISTRIBUIDOR" style="shape=umlActor;verticalLabelPosition=bottom;verticalAlign=top;html=1;" vertex="1" parent="1">
          <mxGeometry x="380" y="80" width="30" height="60" as="geometry" />
        </mxCell>
        <mxCell id="MdGnMoaIirAIcK-owrv5-8" value="ADMIN" style="shape=umlActor;verticalLabelPosition=bottom;verticalAlign=top;html=1;" vertex="1" parent="1">
          <mxGeometry x="280" y="80" width="30" height="60" as="geometry" />
        </mxCell>
        <mxCell id="MdGnMoaIirAIcK-owrv5-13" value="COLABORADORES" style="shape=umlFrame;whiteSpace=wrap;html=1;pointerEvents=0;fillColor=#fff2cc;strokeColor=#d6b656;width=130;height=30;" vertex="1" parent="1">
          <mxGeometry x="200" y="240" width="480" height="160" as="geometry" />
        </mxCell>
        <mxCell id="MdGnMoaIirAIcK-owrv5-14" value="OWNER" style="shape=umlActor;verticalLabelPosition=bottom;verticalAlign=top;html=1;" vertex="1" parent="1">
          <mxGeometry x="320" y="280" width="30" height="60" as="geometry" />
        </mxCell>
        <mxCell id="MdGnMoaIirAIcK-owrv5-15" value="ADMIN" style="shape=umlActor;verticalLabelPosition=bottom;verticalAlign=top;html=1;" vertex="1" parent="1">
          <mxGeometry x="430" y="280" width="30" height="60" as="geometry" />
        </mxCell>
        <mxCell id="MdGnMoaIirAIcK-owrv5-16" value="INVITADO" style="shape=umlActor;verticalLabelPosition=bottom;verticalAlign=top;html=1;" vertex="1" parent="1">
          <mxGeometry x="560" y="80" width="30" height="60" as="geometry" />
        </mxCell>
        <mxCell id="MdGnMoaIirAIcK-owrv5-18" value="USER" style="shape=umlActor;verticalLabelPosition=bottom;verticalAlign=top;html=1;" vertex="1" parent="1">
          <mxGeometry x="520" y="280" width="30" height="60" as="geometry" />
        </mxCell>
      </root>
    </mxGraphModel>
  </diagram>
</mxfile>
